# xmcd
#
# Track frame offsets: 
#        150
#        14244
#        77817
#        97213
#        116285
#        134294
#        155912
#        176439
#        187949
#        205316
#        222375
#
# Disc length: 3162 seconds
#
# Revision: 2
# Processed by: cddbd v1.5.2PL0 Copyright (c) Steve Scherf et al.
# Submitted via: ExactAudioCopyFreeDBPlugin 1.0
#
DISCID=9f0c580b
DTITLE=Yan Si Zhi, Li Meng Yi - King Beautiful - Works for Violin and 
DTITLE=Guitar
DYEAR=2008
DGENRE=Classical
TTITLE0=Speak softly, loves
TTITLE1=Paganini sonata con certata
TTITLE2=Free Wings
TTITLE3=Serenade op.6
TTITLE4=Float Snow
TTITLE5=Passing away of promise
TTITLE6=Send the sadness to myself
TTITLE7=Don't hurt me again
TTITLE8=I don't regret
TTITLE9=Have somebody told you
TTITLE10=Applause resounded
EXTD=
EXTT0=
EXTT1=
EXTT2=
EXTT3=
EXTT4=
EXTT5=
EXTT6=
EXTT7=
EXTT8=
EXTT9=
EXTT10=
PLAYORDER=
